<svg width="800" height="600" xmlns="http://www.w3.org/2000/svg">
  <defs>
    <radialGradient id="star" cx="50%" cy="50%" r="50%" fx="50%" fy="50%">
      <stop offset="0%" stop-color="white" stop-opacity="1"/>
      <stop offset="100%" stop-color="white" stop-opacity="0"/>
    </radialGradient>
  </defs>
  <rect width="100%" height="100%" fill="transparent"/>
  <g fill="url(#star)">
    <circle cx="100" cy="100" r="1"/>
    <circle cx="200" cy="150" r="0.8"/>
    <circle cx="300" cy="50" r="1.2"/>
    <circle cx="400" cy="200" r="0.7"/>
    <circle cx="500" cy="120" r="1"/>
    <circle cx="600" cy="300" r="0.9"/>
    <circle cx="700" cy="180" r="1.1"/>
    <circle cx="50" cy="250" r="0.8"/>
    <circle cx="150" cy="350" r="1"/>
    <circle cx="250" cy="280" r="0.7"/>
    <circle cx="350" cy="400" r="1.2"/>
    <circle cx="450" cy="320" r="0.9"/>
    <circle cx="550" cy="450" r="1"/>
    <circle cx="650" cy="380" r="0.8"/>
    <circle cx="750" cy="500" r="1.1"/>
    <circle cx="80" cy="520" r="0.9"/>
    <circle cx="180" cy="480" r="1"/>
    <circle cx="280" cy="550" r="0.8"/>
    <circle cx="380" cy="500" r="1.2"/>
    <circle cx="480" cy="570" r="0.7"/>
    <circle cx="580" cy="520" r="1"/>
    <circle cx="680" cy="580" r="0.9"/>
    <circle cx="780" cy="540" r="1.1"/>
    <circle cx="120" cy="30" r="0.8"/>
    <circle cx="220" cy="70" r="1"/>
    <circle cx="320" cy="20" r="0.7"/>
    <circle cx="420" cy="80" r="1.2"/>
    <circle cx="520" cy="40" r="0.9"/>
    <circle cx="620" cy="90" r="1"/>
    <circle cx="720" cy="30" r="0.8"/>
    <circle cx="30" cy="180" r="1.1"/>
    <circle cx="130" cy="220" r="0.9"/>
    <circle cx="230" cy="180" r="1"/>
    <circle cx="330" cy="230" r="0.8"/>
    <circle cx="430" cy="170" r="1.2"/>
    <circle cx="530" cy="240" r="0.7"/>
    <circle cx="630" cy="190" r="1"/>
    <circle cx="730" cy="250" r="0.9"/>
    <circle cx="70" cy="330" r="1.1"/>
    <circle cx="170" cy="290" r="0.8"/>
    <circle cx="270" cy="340" r="1"/>
    <circle cx="370" cy="300" r="0.7"/>
    <circle cx="470" cy="350" r="1.2"/>
    <circle cx="570" cy="310" r="0.9"/>
    <circle cx="670" cy="360" r="1"/>
    <circle cx="770" cy="320" r="0.8"/>
    <circle cx="20" cy="430" r="1.1"/>
    <circle cx="120" cy="470" r="0.9"/>
    <circle cx="220" cy="420" r="1"/>
    <circle cx="320" cy="480" r="0.8"/>
    <circle cx="420" cy="430" r="1.2"/>
    <circle cx="520" cy="490" r="0.7"/>
    <circle cx="620" cy="440" r="1"/>
    <circle cx="720" cy="500" r="0.9"/>
  </g>
</svg>
